HIERARCHY
ROOT Hips
{
	OFFSET 0.000000 0.000000 0.000000
	CHANNELS 6 Xposition Yposition Zposition Xrotation Yrotation Zrotation
	JOINT LeftUpLeg_virtual
	{
		OFFSET 0.000000 0.000000 0.000000
		CHANNELS 3 Xrotation Yrotation Zrotation
		JOINT LeftUpLeg
		{
			OFFSET 11.394100 -6.187798 -0.413800
			CHANNELS 3 Xrotation Yrotation Zrotation
			JOINT LeftLeg
			{
				OFFSET 0.430247 -32.302673 3.732800
				CHANNELS 3 Xrotation Yrotation Zrotation
				JOINT LeftFoot
				{
					OFFSET -0.430247 -48.264931 -6.423300
					CHANNELS 3 Xrotation Yrotation Zrotation
					JOINT LeftToeBase
					{
						OFFSET 4.230900 -16.068199 23.438400
						CHANNELS 3 Xrotation Yrotation Zrotation
						JOINT LeftToe_End
						{
							OFFSET 4.510700 0.695400 19.974600
							CHANNELS 3 Xrotation Yrotation Zrotation
							End Site
							{
								OFFSET 0 0 0
							}
						}
					}
				}
			}
		}
	}
	JOINT RightUpLeg_virtual
	{
		OFFSET 0.000000 0.000000 0.000000
		CHANNELS 3 Xrotation Yrotation Zrotation
		JOINT RightUpLeg
		{
			OFFSET -11.333700 -6.187798 -0.413800
			CHANNELS 3 Xrotation Yrotation Zrotation
			JOINT RightLeg
			{
				OFFSET -0.430392 -32.302628 3.733000
				CHANNELS 3 Xrotation Yrotation Zrotation
				JOINT RightFoot
				{
					OFFSET 0.430392 -48.264973 -6.423500
					CHANNELS 3 Xrotation Yrotation Zrotation
					JOINT RightToeBase
					{
						OFFSET -4.230900 -16.068199 23.438400
						CHANNELS 3 Xrotation Yrotation Zrotation
						JOINT RightToe_End
						{
							OFFSET -4.510700 0.695400 19.974600
							CHANNELS 3 Xrotation Yrotation Zrotation
							End Site
							{
								OFFSET 0 0 0
							}
						}
					}
				}
			}
		}
	}
	JOINT Spine_virtual
	{
		OFFSET 0.000000 0.000000 0.000000
		CHANNELS 3 Xrotation Yrotation Zrotation
		JOINT Spine
		{
			OFFSET -0.002400 12.777504 0.315300
			CHANNELS 3 Xrotation Yrotation Zrotation
			JOINT Spine1
			{
				OFFSET -0.002067 5.816869 0.032633
				CHANNELS 3 Xrotation Yrotation Zrotation
				JOINT Spine1_split
				{
					OFFSET -0.002067 5.816869 0.032633
					CHANNELS 3 Xrotation Yrotation Zrotation
					JOINT Spine2
					{
						OFFSET -0.002067 5.816869 0.032633
						CHANNELS 3 Xrotation Yrotation Zrotation
						JOINT Neck_virtual
						{
							OFFSET 0.000000 0.000000 0.000000
							CHANNELS 3 Xrotation Yrotation Zrotation
							JOINT Neck
							{
								OFFSET -0.003700 21.199493 -0.826900
								CHANNELS 3 Xrotation Yrotation Zrotation
								JOINT Head
								{
									OFFSET 0.000000 20.442200 4.834800
									CHANNELS 3 Xrotation Yrotation Zrotation
									JOINT HeadTop_End
									{
										OFFSET 0.000000 34.668396 4.968400
										CHANNELS 3 Xrotation Yrotation Zrotation
										End Site
										{
											OFFSET 0 0 0
										}
									}
								}
							}
						}
						JOINT LeftShoulder_virtual
						{
							OFFSET 0.000000 0.000000 0.000000
							CHANNELS 3 Xrotation Yrotation Zrotation
							JOINT LeftShoulder
							{
								OFFSET 3.288150 8.794197 -1.372250
								CHANNELS 3 Xrotation Yrotation Zrotation
								JOINT LeftShoulder_split
								{
									OFFSET 3.288150 8.794197 -1.372250
									CHANNELS 3 Xrotation Yrotation Zrotation
									JOINT LeftArm
									{
										OFFSET 11.953299 -2.279007 -0.146200
										CHANNELS 3 Xrotation Yrotation Zrotation
										JOINT LeftForeArm
										{
											OFFSET 18.448900 0.000000 0.000000
											CHANNELS 3 Xrotation Yrotation Zrotation
											JOINT LeftHand
											{
												OFFSET 29.527798 0.000000 0.000000
												CHANNELS 3 Xrotation Yrotation Zrotation
												End Site
												{
													OFFSET 0 0 0
												}
											}
										}
									}
								}
							}
						}
						JOINT RightShoulder_virtual
						{
							OFFSET 0.000000 0.000000 0.000000
							CHANNELS 3 Xrotation Yrotation Zrotation
							JOINT RightShoulder
							{
								OFFSET -3.249400 8.794197 -1.372250
								CHANNELS 3 Xrotation Yrotation Zrotation
								JOINT RightShoulder_split
								{
									OFFSET -3.249400 8.794197 -1.372250
									CHANNELS 3 Xrotation Yrotation Zrotation
									JOINT RightArm
									{
										OFFSET -11.953299 -2.279007 -0.146200
										CHANNELS 3 Xrotation Yrotation Zrotation
										JOINT RightForeArm
										{
											OFFSET -18.448900 0.000000 0.000000
											CHANNELS 3 Xrotation Yrotation Zrotation
											JOINT RightHand
											{
												OFFSET -29.527802 0.000000 0.000000
												CHANNELS 3 Xrotation Yrotation Zrotation
												End Site
												{
													OFFSET 0 0 0
												}
											}
										}
									}
								}
							}
						}
					}
				}
			}
		}
	}
}
MOTION
Frames: 4
Frame Time: 0.03333333
0.367963 99.101578 -4.431875 0.000000 0.000000 0.000000 -2.926147 2.585886 1.413039 -12.912902 8.110168 7.451134 26.173929 -1.470014 -0.280461 -10.271536 0.106819 -2.140086 -0.894908 0.047110 0.997999 0.000000 0.000000 0.000000 -3.166312 2.953496 1.131162 -5.362022 -3.866020 -5.095988 20.305895 -8.930495 0.271147 -8.842396 -17.999639 2.746978 -1.216408 -0.180141 0.140954 0.000000 0.000000 0.000000 -2.992645 1.978826 0.971307 -0.072967 -1.996121 -2.937543 0.652355 -0.325431 1.886376 1.229207 -0.236104 -0.099864 0.000000 0.000000 0.000000 -0.096997 -0.234558 1.622770 6.792704 0.499111 -0.354731 -2.465401 1.560785 2.498347 0.000000 0.000000 0.000000 0.206208 -0.038192 1.332203 5.993543 -25.436405 -5.655787 -1.753303 -1.992867 -1.888722 8.968476 5.494983 -79.046285 -1.883279 -14.402185 1.858639 0.000000 0.000000 0.000000 0.264996 -0.023883 2.085779 2.747840 -6.121464 9.254246 -0.298037 3.659487 -0.381297 8.132168 19.504503 71.569966 1.378384 14.536533 -0.067731 0.000000 0.000000 0.000000 
0.214800 99.081741 -4.439941 0.000000 0.000000 0.000000 -2.907751 2.628401 1.409761 -12.910342 8.247909 7.488636 26.143304 -1.517155 -0.325626 -10.312255 0.037118 -2.113130 -0.835674 0.043417 1.028465 0.000000 0.000000 0.000000 -3.141747 2.975888 1.132726 -5.335057 -3.927647 -5.049080 20.395099 -8.992441 0.294206 -8.900931 -17.972968 2.638181 -1.178462 -0.159457 0.114687 0.000000 0.000000 0.000000 -2.988491 1.885882 1.059922 -0.150050 -1.999309 -2.987372 0.593237 -0.331039 1.856839 1.173064 -0.251810 -0.093826 0.000000 0.000000 0.000000 -0.114092 -0.224038 1.598684 6.873182 0.519919 -0.421281 -2.383672 1.632833 2.416199 0.000000 0.000000 0.000000 0.181212 -0.041141 1.308500 6.072939 -25.444651 -5.641186 -1.749168 -1.747327 -2.099412 8.841394 5.267159 -79.189179 -1.876521 -14.624719 1.881376 0.000000 0.000000 0.000000 0.233851 -0.022627 2.105095 2.734573 -6.114459 9.205961 -0.355198 3.941271 -0.418167 8.357261 19.350867 71.582575 1.422617 14.473185 -0.137834 0.000000 0.000000 0.000000 
0.043642 99.054108 -4.407692 0.000000 0.000000 0.000000 -2.916723 2.636685 1.389889 -12.822905 8.373870 7.550160 26.029533 -1.539722 -0.332203 -10.330355 0.000492 -2.082045 -0.801826 0.037779 1.033516 0.000000 0.000000 0.000000 -3.105235 2.942316 1.124366 -5.300484 -3.911502 -5.041327 20.459546 -8.998609 0.329179 -8.696566 -17.902112 2.716470 -1.392883 -0.131585 0.029424 0.000000 0.000000 0.000000 -2.996984 1.856906 1.126247 -0.224335 -1.954335 -3.028912 0.491668 -0.328284 1.829692 1.120767 -0.202992 -0.034314 0.000000 0.000000 0.000000 -0.170622 -0.205191 1.591681 6.906579 0.534195 -0.493384 -2.286336 1.563908 2.348228 0.000000 0.000000 0.000000 0.124721 -0.029185 1.303695 6.109118 -25.497859 -5.697159 -1.809362 -1.538882 -2.304782 8.933465 4.792175 -79.194070 -1.764394 -14.855960 1.891942 0.000000 0.000000 0.000000 0.190017 -0.010469 2.108070 2.693879 -6.019563 9.195456 -0.320758 4.066664 -0.505597 8.436705 19.384741 71.429579 1.391871 14.450346 -0.119311 0.000000 0.000000 0.000000 
-0.093596 99.030785 -4.330227 0.000000 0.000000 0.000000 -2.947754 2.596178 1.350537 -12.672099 8.459382 7.627368 25.857257 -1.512621 -0.296480 -10.322374 -0.010305 -2.043943 -0.804068 0.031325 1.013777 0.000000 0.000000 0.000000 -3.047190 2.900204 1.102495 -5.229715 -3.843685 -5.052669 20.463467 -8.977387 0.362192 -8.366131 -17.805096 2.869998 -1.744242 -0.098585 -0.077212 0.000000 0.000000 0.000000 -2.996651 1.887886 1.152495 -0.258081 -1.885986 -3.055632 0.369578 -0.323491 1.808563 1.117364 -0.204555 0.073770 0.000000 0.000000 0.000000 -0.257792 -0.181893 1.605073 6.900293 0.558941 -0.554593 -2.167128 1.385198 2.302990 0.000000 0.000000 0.000000 0.034977 -0.009055 1.319447 6.107819 -25.598063 -5.774084 -1.897431 -1.343851 -2.506732 9.192431 4.196843 -79.000645 -1.596641 -15.068492 1.842577 0.000000 0.000000 0.000000 0.122372 0.002189 2.096187 2.632557 -5.844257 9.270850 -0.201886 3.962550 -0.546575 8.372255 19.548235 71.176172 1.289196 14.563444 -0.031720 0.000000 0.000000 0.000000 
